<svg id="Layer_1" data-name="Layer 1" xmlns="http://www.w3.org/2000/svg" viewBox="0 0 200 200"><defs><style>.cls-1{fill:#212121;}.cls-2{fill:#fff;}</style></defs><title>software</title><rect class="cls-1" width="200" height="200"/><path class="cls-2" d="M20.84,99.89a1.55,1.55,0,0,1-1-1.37V96.23a1.55,1.55,0,0,1,1-1.37L44.26,82.39c.88-.46,1.52-.33,1.92.4l.92,1.76c.39.73.15,1.33-.71,1.79l-20.75,11v0l20.75,11c.86.46,1.1,1.06.71,1.79L46.18,112c-.4.73-1,.86-1.92.4Z"/><path class="cls-2" d="M53.12,115.67a1.32,1.32,0,0,1-1.5-1.49V80.42a1.32,1.32,0,0,1,1.5-1.49h4a1.32,1.32,0,0,1,1.49,1.49V90.48a18.94,18.94,0,0,1-.1,2h.1a6.14,6.14,0,0,1,2.92-2.7A11.15,11.15,0,0,1,65.78,89a8.93,8.93,0,0,1,6.44,2.43q2.55,2.44,2.55,8.92v13.79a1.32,1.32,0,0,1-1.49,1.49h-4a1.32,1.32,0,0,1-1.5-1.49v-12q0-5.43-.75-6.85c-.49-.94-1.56-1.42-3.21-1.42a4.39,4.39,0,0,0-3.93,2c-.88,1.36-1.32,4.16-1.32,8.43v9.81a1.32,1.32,0,0,1-1.49,1.49Z"/><path class="cls-2" d="M79.35,94.51c-1,0-1.47-.41-1.47-1.24V90.78c0-.83.49-1.25,1.47-1.25H81v-.87a4.07,4.07,0,0,1,.52-2l1.92-3.36a1.54,1.54,0,0,1,1.29-1h1.75A1.32,1.32,0,0,1,88,83.81v5.72h4c1,0,1.47.42,1.47,1.25v2.49c0,.83-.49,1.24-1.47,1.24H88v12.35a13,13,0,0,0,.36,3.64,1.73,1.73,0,0,0,1.88,1.11,6.55,6.55,0,0,0,1.74-.26,9.49,9.49,0,0,0,1.52-.51q.87-.39,1.14.57l.75,2.84a1,1,0,0,1-.65,1.25,12.1,12.1,0,0,1-2.25.68,13.28,13.28,0,0,1-2.87.31A11.85,11.85,0,0,1,83.55,115c-1.67-1-2.51-3-2.51-6V94.51Z"/><path class="cls-2" d="M100.29,115.67a1.31,1.31,0,0,1-1.48-1.49V91a1.32,1.32,0,0,1,1.49-1.5h3.93a1.33,1.33,0,0,1,1.5,1.5v1.44A5.36,5.36,0,0,1,108.24,90a7.17,7.17,0,0,1,3.31-.92,9,9,0,0,1,4.79,1.06,6.09,6.09,0,0,1,2.35,2.37h.1a11.93,11.93,0,0,1,4-2.79,13.71,13.71,0,0,1,4.58-.64,8.84,8.84,0,0,1,6.31,2.43c1.72,1.63,2.57,4.6,2.57,8.92v13.79a1.32,1.32,0,0,1-1.49,1.49h-4a1.32,1.32,0,0,1-1.5-1.49v-12q0-5.43-.76-6.85a2.81,2.81,0,0,0-2.7-1.42,4.19,4.19,0,0,0-3.3,2q-1.5,2-1.5,8.41v9.81a1.32,1.32,0,0,1-1.49,1.49h-4a1.32,1.32,0,0,1-1.49-1.49v-12c0-3.62-.25-5.9-.77-6.85a2.82,2.82,0,0,0-2.71-1.42,4.23,4.23,0,0,0-3.33,2c-1,1.36-1.5,4.16-1.5,8.43v9.81a1.32,1.32,0,0,1-1.49,1.49Z"/><path class="cls-2" d="M142.59,115.67a1.32,1.32,0,0,1-1.5-1.49V84.78a4,4,0,0,1,.53-2l1.91-3.36a1.57,1.57,0,0,1,1.3-.95h1.74a1.32,1.32,0,0,1,1.49,1.5v34.25a1.32,1.32,0,0,1-1.49,1.49Z"/><path class="cls-2" d="M153.15,110.2c-.38-.73-.14-1.33.72-1.79l20.79-11v0l-20.79-11c-.86-.46-1.1-1.06-.72-1.79l.93-1.76c.4-.73,1-.86,1.92-.4l23.42,12.47a1.55,1.55,0,0,1,1,1.37v2.29a1.55,1.55,0,0,1-1,1.37L156,112.36c-.88.46-1.52.33-1.92-.4Z"/></svg>