<svg id="Layer_1" data-name="Layer 1" xmlns="http://www.w3.org/2000/svg" viewBox="0 0 200 200"><defs><style>.cls-1{fill:#212121;}.cls-2{fill:#fff;}</style></defs><title>software</title><rect class="cls-1" width="200" height="200"/><path class="cls-2" d="M34.76,142.52q-5.62,0-2.09-5.05l27-38.42L34.79,63.52q-3.54-5,2.08-5H48.71A6.3,6.3,0,0,1,54,61.6L70,84.36,86,61.6a6.31,6.31,0,0,1,5.28-3.1h11.83q5.63,0,2.09,5L80.29,99.05l27,38.42q3.52,5.06-2.1,5.05h-12q-3,0-5.27-3.16L70,113.76l-17.93,25.6q-2.23,3.16-5.28,3.16Z"/><path class="cls-2" d="M109.81,111.76q0-12.9,5.69-22.41t19.7-9.53a24.63,24.63,0,0,1,9.18,1.53q3.81,1.52,6.91,6.56h.24a45.89,45.89,0,0,1-.24-4.69V59.55c0-2.34,1.12-3.52,3.37-3.52h9c2.25,0,3.37,1.18,3.37,3.52V139c0,2.35-1.18,3.52-3.52,3.52h-9.26q-2.92,0-2.93-3.52v-3.39q-3.09,5-6.91,6.56a24.85,24.85,0,0,1-9.18,1.52q-14,0-19.7-9.52T109.81,111.76Zm17.34,0q0,9.38,2.51,14.91t10.65,5.54q4.53,0,7.75-5t3.23-12.87v-5.27q0-7.91-3.23-12.86t-7.75-5q-8.15,0-10.65,5.54T127.15,111.76Z"/></svg>