<svg id="Layer_1" data-name="Layer 1" xmlns="http://www.w3.org/2000/svg" viewBox="0 0 200 200"><defs><style>.cls-1{fill:#212121;}.cls-2{fill:#fff;}</style></defs><title>software</title><rect class="cls-1" width="200" height="200"/><polygon class="cls-2" points="42.17 82.27 94.21 146.88 70.6 82.27 42.17 82.27"/><polygon class="cls-2" points="75.24 82.27 100.39 151.1 126.03 82.27 75.24 82.27"/><polygon class="cls-2" points="105.99 148.54 159.38 82.27 130.68 82.27 105.99 148.54"/><polygon class="cls-2" points="139.01 48 105.35 48 128.43 76.41 139.01 48"/><polygon class="cls-2" points="124.51 78.55 100.77 49.34 77.04 78.55 124.51 78.55"/><polygon class="cls-2" points="96.2 48 62.51 48 72.96 76.6 96.2 48"/><polygon class="cls-2" points="58.88 50.81 41.55 78.55 69.01 78.55 58.88 50.81"/><polygon class="cls-2" points="160 78.55 142.65 50.79 132.31 78.55 160 78.55"/></svg>