<svg id="Layer_1" data-name="Layer 1" xmlns="http://www.w3.org/2000/svg" viewBox="0 0 200 200"><defs><style>.cls-1{fill:#212121;}.cls-2{fill:#fff;}</style></defs><title>software</title><rect class="cls-1" width="200" height="200"/><path class="cls-2" d="M45.21,99.78c0-4.24,1.07-7.55,3.19-10s5.39-3.61,9.78-3.61a14.21,14.21,0,0,1,6,1,8.37,8.37,0,0,1,3.44,3c.51.78.43,1.39-.25,1.84L64.73,93.8c-.75.5-1.4.31-2-.57a5.18,5.18,0,0,0-1.61-1.39,5.5,5.5,0,0,0-3-.75,4.8,4.8,0,0,0-4.2,2c-.93,1.32-1.4,3.55-1.4,6.71s.47,5.38,1.4,6.7a4.8,4.8,0,0,0,4.2,2,5.71,5.71,0,0,0,3.26-.84,11.38,11.38,0,0,0,2.34-2.19,1.29,1.29,0,0,1,2-.33l2.31,1.82q1.05.83.12,2.19A10.18,10.18,0,0,1,64.92,112a13.29,13.29,0,0,1-6.74,1.39c-4.39,0-7.66-1.2-9.78-3.61S45.21,104,45.21,99.78Z"/><path class="cls-2" d="M71.84,111.1c-.81-.58-1-1.2-.67-1.87l1.27-2.31c.45-.83,1.15-.93,2.09-.3a10.15,10.15,0,0,0,3.35,1.4,16.18,16.18,0,0,0,3.52.44,9.18,9.18,0,0,0,2.09-.22,3.46,3.46,0,0,0,1.65-.87,2.53,2.53,0,0,0,.67-1.89,2,2,0,0,0-.4-1.26,2.56,2.56,0,0,0-1-.79,8.2,8.2,0,0,0-1.32-.45c-.61-.14-1.5-.39-2.65-.73a29,29,0,0,1-3.32-1.2,10.94,10.94,0,0,1-2.58-1.62,6.57,6.57,0,0,1-1.84-2.33A7.54,7.54,0,0,1,72.09,94a7,7,0,0,1,1.46-4.4,7.4,7.4,0,0,1,3.77-2.62,19.73,19.73,0,0,1,5.78-.72,15.57,15.57,0,0,1,4.55.67,13.89,13.89,0,0,1,3.16,1.27c1,.63,1.25,1.3.75,2L90,92.38c-.46.67-1.21.72-2.24.15a14.91,14.91,0,0,0-2.3-1,7.5,7.5,0,0,0-2.53-.4,8.32,8.32,0,0,0-1.82.2,3.29,3.29,0,0,0-1.48.74,1.89,1.89,0,0,0-.61,1.45A2,2,0,0,0,79.62,95a3.4,3.4,0,0,0,1.3.78l1.4.48c.93.3,1.87.58,2.82.86s1.9.6,2.88,1a9.84,9.84,0,0,1,2.47,1.42,5.28,5.28,0,0,1,1.74,2.34,8.78,8.78,0,0,1,.55,3.23,7.6,7.6,0,0,1-1.45,4.48,7.84,7.84,0,0,1-3.8,2.94,15.93,15.93,0,0,1-5.51.87,30,30,0,0,1-6-.5A10.88,10.88,0,0,1,71.84,111.1Z"/><path class="cls-2" d="M95.59,111.1c-.82-.58-1-1.2-.68-1.87l1.27-2.31c.45-.83,1.15-.93,2.09-.3a10.25,10.25,0,0,0,3.35,1.4,16.18,16.18,0,0,0,3.52.44,9.33,9.33,0,0,0,2.1-.22,3.48,3.48,0,0,0,1.64-.87,2.49,2.49,0,0,0,.67-1.89,2,2,0,0,0-.4-1.26,2.43,2.43,0,0,0-1-.79,7.59,7.59,0,0,0-1.32-.45c-.61-.14-1.5-.39-2.65-.73a29,29,0,0,1-3.32-1.2,10.94,10.94,0,0,1-2.58-1.62,6.57,6.57,0,0,1-1.84-2.33A7.54,7.54,0,0,1,95.83,94a7,7,0,0,1,1.46-4.4,7.4,7.4,0,0,1,3.77-2.62,19.78,19.78,0,0,1,5.78-.72,15.47,15.47,0,0,1,4.55.67,13.89,13.89,0,0,1,3.16,1.27c1,.63,1.25,1.3.75,2l-1.52,2.21c-.46.67-1.21.72-2.24.15a14.91,14.91,0,0,0-2.3-1,7.5,7.5,0,0,0-2.53-.4,8.23,8.23,0,0,0-1.81.2,3.28,3.28,0,0,0-1.49.74,1.89,1.89,0,0,0-.61,1.45,2,2,0,0,0,.56,1.48,3.4,3.4,0,0,0,1.3.78l1.41.48c.92.3,1.86.58,2.81.86s1.91.6,2.89,1a10,10,0,0,1,2.46,1.42,5.2,5.2,0,0,1,1.74,2.34,8.78,8.78,0,0,1,.55,3.23,7.66,7.66,0,0,1-1.44,4.48,7.91,7.91,0,0,1-3.81,2.94,15.91,15.91,0,0,1-5.5.87,30.16,30.16,0,0,1-6-.5A10.77,10.77,0,0,1,95.59,111.1Z"/><path class="cls-2" d="M119.8,101.79c-.81,0-1.22-.49-1.22-1.47v-2c0-1,.41-1.47,1.22-1.47a4.34,4.34,0,0,0,2.79-1.28c1-.85,1.47-2.81,1.47-5.86V82.58c0-2.78.64-4.63,1.91-5.57s4-1.4,8.24-1.4c1,0,1.5.41,1.5,1.24v2.49c0,.83-.5,1.24-1.5,1.24-1.61,0-2.54.39-2.8,1.17a9,9,0,0,0-.38,2.74v6.35q0,4.08-1.67,6A8.19,8.19,0,0,1,125,99.28v0a8.06,8.06,0,0,1,4.33,2.49q1.66,1.86,1.67,6v6.34a9,9,0,0,0,.38,2.74c.26.78,1.19,1.17,2.8,1.17,1,0,1.5.42,1.5,1.25v2.49c0,.83-.5,1.24-1.5,1.24q-6.32,0-8.24-1.41c-1.27-.93-1.91-2.79-1.91-5.56v-7.09c0-3.06-.49-5-1.47-5.87A4.39,4.39,0,0,0,119.8,101.79Z"/><path class="cls-2" d="M138.71,123c-1,0-1.49-.41-1.49-1.24v-2.49c0-.83.5-1.25,1.49-1.25,1.61,0,2.55-.39,2.8-1.17a8.66,8.66,0,0,0,.39-2.74v-6.34q0-4.09,1.67-6a8,8,0,0,1,4.33-2.49v0a8.15,8.15,0,0,1-4.33-2.49q-1.66-1.87-1.67-6V84.49a8.71,8.71,0,0,0-.39-2.74c-.25-.78-1.19-1.17-2.8-1.17-1,0-1.49-.41-1.49-1.24V76.85c0-.83.5-1.24,1.49-1.24,4.22,0,7,.46,8.24,1.4s1.92,2.79,1.92,5.57v7.09c0,3,.49,5,1.47,5.86a4.34,4.34,0,0,0,2.79,1.28c.81,0,1.22.49,1.22,1.47v2c0,1-.41,1.47-1.22,1.47a4.39,4.39,0,0,0-2.79,1.28c-1,.86-1.47,2.81-1.47,5.87V116c0,2.77-.64,4.63-1.92,5.56S142.93,123,138.71,123Z"/></svg>