<svg id="Layer_1" data-name="Layer 1" xmlns="http://www.w3.org/2000/svg" viewBox="0 0 200 200"><defs><style>.cls-1{fill:#212121;}.cls-2{fill:#fff;}</style></defs><title>software</title><rect class="cls-1" width="200" height="200"/><path class="cls-2" d="M132.69,98c-.15-15.39,12.55-22.78,13.12-23.14-7.14-10.45-18.26-11.88-22.23-12-9.46-1-18.47,5.58-23.27,5.58S88.1,63,80.25,63.13A29.73,29.73,0,0,0,55.11,78.37c-10.72,18.6-2.74,46.15,7.7,61.24C67.92,147,74,155.29,82,155c7.7-.3,10.61-5,19.91-5s11.92,5,20.07,4.83,13.53-7.53,18.6-14.93A67,67,0,0,0,149,122.62C148.82,122.54,132.85,116.42,132.69,98ZM117.38,52.86c4.25-5.15,7.11-12.29,6.33-19.42-6.11.25-13.52,4.07-17.9,9.21-3.94,4.56-7.38,11.83-6.46,18.81C106.17,62,113.14,58,117.38,52.86Z"/></svg>