<svg id="Layer_1" data-name="Layer 1" xmlns="http://www.w3.org/2000/svg" viewBox="0 0 200 200"><defs><style>.cls-1{fill:#212121;}.cls-2{fill:#fff;}</style></defs><title>software-10</title><rect class="cls-1" width="200" height="200"/><path class="cls-2" d="M159,121.71s-4,9-8.53,10.66-8.51-1.85-.94-19,3.32-32-1.42-36.61-17.52-6-24.62-1.85A48.52,48.52,0,0,0,111.64,85l2.28-12.4-27.83.46L81.83,88.34H94.14S82.77,122,81.83,122.79s-9,6.82-12.46,8-7.43,2.09-5.54-5.33S77.09,72.59,77.09,72.59H45.84L43,87.42v.92H54.36s-9,35.23-9.47,39.4.48,12.79,14.19,15.29,23.69-10.66,23.69-10.66L80.88,143h18s9.33-36.34,12.76-44.33,14.85-15,20.56-10.36,3.14,12,.77,18.08-7.62,22-3.05,30,19.62,11.42,28.15,1.54a47.19,47.19,0,0,0,8.41-14.11Z"/><circle class="cls-2" cx="68.22" cy="54.14" r="9.14"/></svg>