<svg id="Layer_1" data-name="Layer 1" xmlns="http://www.w3.org/2000/svg" viewBox="0 0 200 200"><defs><style>.cls-1{fill:#212121;}.cls-2{fill:#fff;}</style></defs><title>software</title><rect class="cls-1" width="200" height="200"/><path class="cls-2" d="M46.63,142.52c-2.74,0-4.1-1.47-4.1-4.4V62.89c0-2.93,1.36-4.39,4.1-4.39H68.54q21.09,0,29.27,6.85T106,84.8q0,12.6-8.17,19.46t-29.27,6.85H59.63v27c0,2.93-1.36,4.4-4.1,4.4Zm13-45.7h8.85q11.72,0,15.94-2.79t4.22-9.23q0-6.43-4.22-9.22T68.48,72.79H59.63Z"/><path class="cls-2" d="M114.7,138.42c-1.91-1.37-2.44-2.83-1.58-4.4l3-5.45q1.58-2.92,4.92-.7a23.58,23.58,0,0,0,7.88,3.28,36.56,36.56,0,0,0,8.29,1.06,21.89,21.89,0,0,0,4.92-.53,8.06,8.06,0,0,0,3.87-2.05,5.92,5.92,0,0,0,1.58-4.45,4.71,4.71,0,0,0-.94-3,6,6,0,0,0-2.4-1.86,19.8,19.8,0,0,0-3.1-1c-1.45-.34-3.53-.92-6.24-1.72a72.39,72.39,0,0,1-7.83-2.82,25.6,25.6,0,0,1-6.06-3.82,15.56,15.56,0,0,1-4.34-5.48,17.93,17.93,0,0,1-1.37-7.41,16.52,16.52,0,0,1,3.42-10.37,17.6,17.6,0,0,1,8.88-6.16,46.45,46.45,0,0,1,13.6-1.7,36.57,36.57,0,0,1,10.72,1.59,33.33,33.33,0,0,1,7.44,3q3.51,2.23,1.76,4.75l-3.58,5.21q-1.64,2.36-5.27.36a34.83,34.83,0,0,0-5.42-2.46,17.73,17.73,0,0,0-6-.94,18.63,18.63,0,0,0-4.27.47,7.74,7.74,0,0,0-3.49,1.75,4.35,4.35,0,0,0-1.44,3.4,4.59,4.59,0,0,0,1.32,3.49,8.18,8.18,0,0,0,3.05,1.85l3.31,1.11c2.19.7,4.39,1.38,6.62,2s4.49,1.42,6.8,2.32a23.88,23.88,0,0,1,5.8,3.33,12.62,12.62,0,0,1,4.1,5.51,21.06,21.06,0,0,1,1.29,7.62,18.11,18.11,0,0,1-3.4,10.55,18.52,18.52,0,0,1-9,6.91,37.37,37.37,0,0,1-13,2.05,72.43,72.43,0,0,1-14.07-1.17A25.53,25.53,0,0,1,114.7,138.42Z"/></svg>