<svg id="Layer_1" data-name="Layer 1" xmlns="http://www.w3.org/2000/svg" viewBox="0 0 200 200"><defs><style>.cls-1{fill:#212121;}.cls-2{fill:#fff;}</style></defs><title>software</title><rect class="cls-1" width="200" height="200"/><path class="cls-2" d="M62.12,142.52q-4.09,0-4.1-4.4V62.89q0-4.39,4.1-4.39H71q4.09,0,4.1,4.39v75.23q0,4.4-4.1,4.4Z"/><path class="cls-2" d="M86.2,111.76q0-12.9,5.69-22.41t19.7-9.53a24.71,24.71,0,0,1,9.18,1.53q3.81,1.52,6.91,6.56h.23c-.15-1.56-.23-3.12-.23-4.69V59.55c0-2.34,1.12-3.52,3.36-3.52h9c2.24,0,3.36,1.18,3.36,3.52V139q0,3.52-3.51,3.52h-9.26q-2.93,0-2.93-3.52v-3.39q-3.11,5-6.91,6.56a24.92,24.92,0,0,1-9.18,1.52q-14,0-19.7-9.52T86.2,111.76Zm17.34,0q0,9.38,2.5,14.91t10.66,5.54q4.51,0,7.75-5t3.23-12.87v-5.27q0-7.91-3.23-12.86t-7.75-5q-8.16,0-10.66,5.54T103.54,111.76Z"/></svg>