<svg id="Layer_1" data-name="Layer 1" xmlns="http://www.w3.org/2000/svg" viewBox="0 0 200 200"><defs><style>.cls-1{fill:#212121;}.cls-2{fill:#fff;}</style></defs><title>software</title><rect class="cls-1" width="200" height="200"/><path class="cls-2" d="M51,142.52c-2.64,0-3.46-1.29-2.49-3.87L77.18,63.24Q79,58.5,82.69,58.5h8.2c2.47,0,4.3,1.58,5.51,4.74l28.71,75.41q1.47,3.87-2.48,3.87h-8.72q-3.61,0-5.15-4l-6-15.77H70.84l-6,15.77q-1.53,4-5.15,4Zm25.41-34.34H97.21L90.12,89.55a22.64,22.64,0,0,1-2.32-4.78A44.53,44.53,0,0,1,87,80.35h-.35a44.53,44.53,0,0,1-.83,4.42,22.83,22.83,0,0,1-2.33,4.78Z"/><path class="cls-2" d="M134.65,72q-3.51,0-3.51-3.51V61q0-3.52,3.51-3.52H144q3.51,0,3.51,3.52v7.5Q147.54,72,144,72Zm0,70.55q-3.51,0-3.51-3.52V84.51q0-3.51,3.51-3.51H144q3.51,0,3.51,3.51V139q0,3.52-3.51,3.52Z"/></svg>