<svg xmlns="http://www.w3.org/2000/svg" viewBox="0 0 236 236"><defs><style>.cls-1{fill:#231f20;}</style></defs><title>logo</title><g id="Layer_2" data-name="Layer 2"><path class="cls-1" d="M56.5,61.39a61.58,61.58,0,0,0,56.5,61.3v103a51.56,51.56,0,0,1-46.5-51.25h-10a61.58,61.58,0,0,0,56.5,61.3v.09A118,118,0,0,1,113,0V.09A61.58,61.58,0,0,0,56.5,61.39Z"/><path class="cls-1" d="M113,10.14v102.5a51.49,51.49,0,0,1,0-102.5Z"/><path class="cls-1" d="M169.5,208v16.11a117.24,117.24,0,0,1-46.5,11.7v-.09A61.52,61.52,0,0,0,169.5,208Z"/><path class="cls-1" d="M169.5,122.7v18.11a62,62,0,0,0-17.93-17.93c5.54,0,10.65-.06,14.73-.12Z"/><path class="cls-1" d="M169.5,174.39A51.56,51.56,0,0,1,123,225.64V123.14A51.56,51.56,0,0,1,169.5,174.39Z"/><path class="cls-1" d="M236,117.89a117.9,117.9,0,0,1-56.5,100.72V17.17A117.9,117.9,0,0,1,236,117.89Z"/><path class="cls-1" d="M169.5,11.7V27.81A61.52,61.52,0,0,0,123,.09V0A117.24,117.24,0,0,1,169.5,11.7Z"/><path class="cls-1" d="M169.5,61.39V112.2l-3.2-.06c-5.36-.08-12.48-.12-20.05-.12s-14.69,0-20,.12l-3.2.06V10.14A51.56,51.56,0,0,1,169.5,61.39Z"/></g></svg>